<?xml version="1.0" encoding="UTF-8"?>
<svg width="1920" height="1080" viewBox="0 0 1920 1080" xmlns="http://www.w3.org/2000/svg" preserveAspectRatio="xMidYMid slice">
  <defs>
    <linearGradient id="g1" x1="0" x2="1" y1="0" y2="1">
      <stop offset="0%" stop-color="#F5F5ED" />
      <stop offset="45%" stop-color="#EAF6E7" />
      <stop offset="100%" stop-color="#E7F3EC" />
    </linearGradient>

    <linearGradient id="leafGrad" x1="0" x2="1">
      <stop offset="0%" stop-color="#CCEBD6" />
      <stop offset="100%" stop-color="#A8E6A1" />
    </linearGradient>

    <filter id="softNoise">
      <feTurbulence type="fractalNoise" baseFrequency="0.8" numOctaves="2" stitchTiles="stitch" result="noise" />
      <feColorMatrix type="saturate" values="0" />
      <feComponentTransfer>
        <feFuncA type="table" tableValues="0 0.06" />
      </feComponentTransfer>
      <feBlend in="SourceGraphic" in2="noise" mode="overlay" />
    </filter>

    <filter id="blurOut" x="-20%" y="-20%" width="140%" height="140%">
      <feGaussianBlur stdDeviation="40" result="blur" />
      <feBlend in="SourceGraphic" in2="blur" mode="normal" />
    </filter>
  </defs>

  <!-- Base gradient -->
  <rect width="100%" height="100%" fill="url(#g1)" />

  <!-- Subtle radial glow for depth -->
  <radialGradient id="halo" cx="70%" cy="20%" r="60%">
    <stop offset="0%" stop-color="#FFFFFF" stop-opacity="0.08" />
    <stop offset="100%" stop-color="#84C99E" stop-opacity="0" />
  </radialGradient>
  <rect width="100%" height="100%" fill="url(#halo)" />

  <!-- Soft abstract earth-tone shapes -->
  <g opacity="0.9" filter="url(#blurOut)">
    <path d="M-200 800 C 200 650, 500 500, 900 540 C 1300 580, 1500 700, 2200 600 L 2200 1200 L -200 1200 Z"
          fill="#F3E9DD" opacity="0.9" />
    <path d="M-200 600 C 150 500, 400 420, 900 460 C 1400 500, 1700 560, 2200 480 L 2200 1200 L -200 1200 Z"
          fill="#E9F6EC" opacity="0.8" />
  </g>

  <!-- Leaf motifs - subtle and minimal -->
  <g transform="translate(1600,160) scale(1.2)" opacity="0.9">
    <path d="M0 0 C 40 -20, 80 -10, 100 20 C 60 10, 20 40, 0 60 C -10 40, -20 20, 0 0 Z"
          fill="url(#leafGrad)" opacity="0.85" />
    <path d="M30 20 C 55 10, 80 20, 90 40" stroke="#7FBF7F" stroke-width="2" fill="none" opacity="0.4" />
  </g>

  <g transform="translate(260,860) scale(0.9) rotate(-15)" opacity="0.85">
    <path d="M0 0 C 60 -30, 120 -10, 160 40 C 90 20, 50 70, 0 120 C -20 70, -40 30, 0 0 Z"
          fill="#DFF5E4" opacity="0.7" />
  </g>

  <!-- Subtle textured noise overlay (very low opacity) -->
  <rect width="100%" height="100%" fill="#000" filter="url(#softNoise)" opacity="0.02" />

  <!-- Foreground vignette to improve legibility of UI -->
  <radialGradient id="vignette" cx="50%" cy="55%" r="80%">
    <stop offset="60%" stop-color="#000000" stop-opacity="0" />
    <stop offset="100%" stop-color="#000000" stop-opacity="0.06" />
  </radialGradient>
  <rect width="100%" height="100%" fill="url(#vignette)" />

  <!-- Accessibility: invisible large rect to ensure background covers full canvas when used as image -->
  <rect x="0" y="0" width="1920" height="1080" fill-opacity="0" />
</svg>
