<?xml version="1.0" encoding="UTF-8"?>
<svg width="1080" height="1920" viewBox="0 0 1080 1920" xmlns="http://www.w3.org/2000/svg" preserveAspectRatio="xMidYMid slice">
  <defs>
    <linearGradient id="mg" x1="0" x2="1">
      <stop offset="0%" stop-color="#F9FBF7" />
      <stop offset="100%" stop-color="#E8F6EA" />
    </linearGradient>
    <linearGradient id="leafm" x1="0" x2="1">
      <stop offset="0%" stop-color="#DFF5E4" />
      <stop offset="100%" stop-color="#A8E6A1" />
    </linearGradient>
    <filter id="softNoiseM">
      <feTurbulence type="fractalNoise" baseFrequency="1.2" numOctaves="2" stitchTiles="stitch" result="noise" />
      <feColorMatrix type="saturate" values="0" />
      <feComponentTransfer>
        <feFuncA type="table" tableValues="0 0.06" />
      </feComponentTransfer>
      <feBlend in="SourceGraphic" in2="noise" mode="overlay" />
    </filter>
  </defs>

  <rect width="100%" height="100%" fill="url(#mg)" />

  <!-- Abstract organic shapes -->
  <g transform="translate(-200,1400)" opacity="0.9">
    <path d="M0 400 C 200 300, 400 250, 540 300 C 700 360, 900 420, 1300 380 L 1300 2200 L 0 2200 Z" fill="#F3E9DD" />
    <path d="M0 300 C 180 240, 360 210, 540 260 C 720 310, 920 350, 1300 320 L 1300 2200 L 0 2200 Z" fill="#EAF6EC" opacity="0.9" />
  </g>

  <!-- Leaf accents -->
  <g transform="translate(860,330) scale(0.9)">
    <path d="M0 0 C 40 -18, 80 -8, 100 18 C 60 8, 20 35, 0 55 C -10 35, -20 18, 0 0 Z" fill="url(#leafm)" opacity="0.88" />
  </g>

  <rect width="100%" height="100%" fill="#000" filter="url(#softNoiseM)" opacity="0.02" />

</svg>
